<svg id="vector" xmlns="http://www.w3.org/2000/svg" width="23.197025" height="32"
    viewBox="0 0 390 538">
    <path fill="#00BCD4"
        d="M72,29L198,29L198,60L229,60L229,92L261,92L261,532L229,532L229,501L41,501L41,532L9,532L9,92L41,92L41,60L72,60ZM41,123L41,375L72,375L72,406L198,406L198,375L229,375L229,186L198,186L198,155L72,155L72,123ZM41,438L41,469L103,469L103,438ZM166,438L166,469L229,469L229,438Z"
        id="path_0" />
    <path fill="#000000"
        d="M229,60L292,60L292,92L324,92L324,218L355,218L355,249L387,249L387,375L355,375L355,406L324,406L324,501L355,501L355,532L261,532L261,92L229,92Z"
        id="path_1" />
    <path fill="#000000"
        d="M72,155L198,155L198,186L229,186L229,375L198,375L198,406L72,406L72,375L41,375L41,343L72,343L72,312L41,312L41,218L72,218ZM72,249L72,312L103,312L103,343L198,343L198,249Z"
        id="path_2" />
    <path fill="#00BCD4" d="M103,249L198,249L198,343L103,343Z" id="path_3" />
    <path fill="#000000" d="M41,501L229,501L229,532L41,532Z" id="path_4" />
    <path fill="#FCFCFC" d="M41,123L72,123L72,218L41,218Z" id="path_5" />
    <path fill="#000000" d="M166,438L229,438L229,469L166,469Z" id="path_6" />
    <path fill="#FCFCFC" d="M72,249L103,249L103,312L72,312Z" id="path_7" />
    <path fill="#000000" d="M41,438L103,438L103,469L41,469Z" id="path_8" />
    <path fill="#FCFCFC" d="M41,312L72,312L72,343L41,343Z" id="path_9" />
    <path fill="#000000" d="M198,29L229,29L229,60L198,60Z" id="path_10" />
</svg>